<?xml version="1.0" encoding="utf-8"?>
<!-- Generator: Adobe Illustrator 15.1.0, SVG Export Plug-In . SVG Version: 6.00 Build 0)  -->
<!DOCTYPE svg PUBLIC "-//W3C//DTD SVG 1.1//EN" "http://www.w3.org/Graphics/SVG/1.1/DTD/svg11.dtd">
<svg version="1.1" id="Layer_1" xmlns="http://www.w3.org/2000/svg" xmlns:xlink="http://www.w3.org/1999/xlink" x="0px" y="0px"
	 width="559px" height="591px" viewBox="0 -112 559 591" enable-background="new 0 -112 559 591" xml:space="preserve">
<g>
	<path fill="#E6EDF4" d="M492.73,249.431c3.021,0.353,5.624,0.826,7.073,1.335l33.231,11.697c2.891,1.017,2.504,2.636-0.878,3.604
		l-38.748,11.062c-3.382,0.967-11.265,1.707-17.529,1.654l-71.998-0.628c-3.132-0.027-6.573-0.263-9.596-0.617
		c-3.021-0.353-5.62-0.827-7.067-1.334l-33.224-11.696c-2.905-1.021-2.518-2.639,0.866-3.604l38.746-11.064
		c3.384-0.967,11.268-1.71,17.543-1.653l71.99,0.627C486.27,248.843,489.711,249.076,492.73,249.431z"/>
</g>
<g>
	<g>
		<g>
			<path fill="#E6EDF4" d="M302.815,113.232c3.021,0.353,5.622,0.826,7.072,1.335l33.231,11.698
				c2.891,1.015,2.504,2.636-0.879,3.603l-38.747,11.063c-3.383,0.966-11.266,1.707-17.529,1.654l-71.997-0.628
				c-3.133-0.027-6.574-0.262-9.595-0.616c-3.024-0.353-5.622-0.827-7.07-1.335l-33.22-11.696c-2.908-1.019-2.52-2.639,0.863-3.604
				l38.747-11.064c3.384-0.966,11.269-1.709,17.543-1.652l71.992,0.626C296.354,112.643,299.793,112.877,302.815,113.232z"/>
		</g>
		<path fill="#F5F9FC" d="M345.03,128.041c-0.009,0.047-0.013,0.092-0.03,0.139c-0.018,0.051-0.049,0.103-0.077,0.155
			c-0.019,0.036-0.034,0.069-0.057,0.105c-0.114,0.165-0.279,0.327-0.493,0.486c-0.033,0.022-0.068,0.043-0.1,0.067
			c-0.082,0.056-0.173,0.115-0.269,0.168c-0.039,0.023-0.075,0.042-0.116,0.064c-0.266,0.144-0.578,0.279-0.933,0.409
			c-0.041,0.016-0.082,0.028-0.124,0.043c-0.188,0.066-0.383,0.128-0.592,0.19l-38.747,11.063c-0.187,0.053-0.394,0.104-0.605,0.158
			c-0.062,0.014-0.127,0.031-0.188,0.044c-0.158,0.038-0.323,0.074-0.491,0.11c-0.13,0.026-0.264,0.054-0.4,0.08
			c-0.117,0.025-0.236,0.045-0.358,0.068c-0.245,0.045-0.505,0.092-0.771,0.137c-0.108,0.015-0.215,0.035-0.328,0.051
			c-0.435,0.071-0.892,0.139-1.365,0.201c-0.053,0.006-0.106,0.013-0.157,0.019c-0.504,0.068-1.028,0.132-1.569,0.191
			c-0.028,0.004-0.057,0.007-0.085,0.01c-0.54,0.059-1.099,0.114-1.662,0.167c-0.092,0.008-0.185,0.018-0.275,0.023
			c-1.045,0.094-2.116,0.173-3.197,0.235c-0.088,0.004-0.176,0.008-0.264,0.014c-0.674,0.036-1.352,0.065-2.023,0.091
			c-0.37,0.013-0.738,0.024-1.108,0.031c-0.163,0.005-0.329,0.008-0.493,0.011c-0.324,0.006-0.646,0.013-0.965,0.015
			c-0.031,0-0.06,0-0.087,0c-0.385,0.003-0.763,0.003-1.135-0.001l-71.997-0.628c-0.777-0.006-1.573-0.026-2.377-0.058
			c-0.021,0-0.04-0.001-0.059-0.002c-0.785-0.03-1.576-0.073-2.365-0.123c-0.021-0.001-0.042-0.004-0.062-0.005
			c-1.623-0.106-3.228-0.252-4.732-0.428c-0.292-0.034-0.576-0.07-0.863-0.107c-0.091-0.013-0.187-0.023-0.277-0.036
			c-0.193-0.025-0.377-0.052-0.564-0.076c-0.208-0.029-0.418-0.059-0.619-0.089c-0.168-0.024-0.33-0.05-0.494-0.077
			c-0.256-0.042-0.507-0.083-0.749-0.125c-0.125-0.021-0.249-0.042-0.37-0.065c-0.411-0.076-0.801-0.149-1.166-0.231
			c-0.07-0.014-0.132-0.029-0.199-0.045c-0.269-0.06-0.523-0.122-0.763-0.183c-0.08-0.021-0.159-0.043-0.237-0.063
			c-0.279-0.076-0.543-0.155-0.77-0.235l-33.22-11.696c-1.311-0.458-1.951-1.04-1.951-1.625
			c-0.008,14.125-0.018,87.463-0.029,101.589c0,0.589,0.641,1.17,1.95,1.628l33.222,11.696c0.229,0.079,0.491,0.159,0.77,0.233
			c0.077,0.021,0.158,0.045,0.239,0.064c0.242,0.064,0.498,0.125,0.771,0.187c0.044,0.011,0.081,0.021,0.124,0.032
			c0.017,0.002,0.039,0.004,0.057,0.009c0.374,0.083,0.775,0.162,1.2,0.238c0.029,0.005,0.053,0.012,0.083,0.016
			c0.058,0.011,0.125,0.022,0.186,0.031c0.293,0.053,0.595,0.102,0.908,0.152c0.066,0.01,0.127,0.021,0.195,0.032
			c0.046,0.006,0.098,0.013,0.145,0.019c0.312,0.05,0.633,0.095,0.958,0.14c0.057,0.008,0.109,0.016,0.166,0.023
			c0.014,0.002,0.031,0.003,0.043,0.006c0.381,0.05,0.768,0.098,1.166,0.146c0.013,0.001,0.026,0.004,0.039,0.006l0.021,0.001
			c0.392,0.046,0.789,0.09,1.193,0.131c0.389,0.041,0.779,0.078,1.174,0.115c0.37,0.031,0.743,0.063,1.119,0.093
			c0.349,0.028,0.703,0.054,1.057,0.078c0.049,0.003,0.101,0.005,0.152,0.01c0.052,0.002,0.104,0.005,0.158,0.01
			c0.226,0.015,0.452,0.03,0.681,0.042c0.303,0.018,0.611,0.033,0.915,0.049c0.226,0.007,0.45,0.018,0.678,0.028
			c0.039,0.001,0.075,0.001,0.113,0.002c0.016,0,0.029,0,0.044,0.005c0.251,0.008,0.503,0.017,0.752,0.024
			c0.225,0.007,0.447,0.012,0.669,0.018c0.199,0.002,0.395,0.007,0.594,0.011c0.098,0,0.196,0.002,0.294,0.002l71.995,0.625
			c0.076,0.002,0.151,0.002,0.229,0.004c0.182,0,0.362,0,0.546,0c0.077,0,0.152-0.002,0.229-0.002
			c0.132-0.002,0.264-0.002,0.397-0.003c0.193-0.001,0.39-0.004,0.586-0.006c0.07-0.003,0.139-0.003,0.209-0.004
			c0.13-0.002,0.256-0.004,0.385-0.009c0.049,0,0.099-0.001,0.148-0.003c0.232-0.006,0.467-0.013,0.699-0.02
			c0.088-0.002,0.173-0.004,0.262-0.009h0.004h0.009c0.671-0.022,1.347-0.052,2.023-0.091c0.049-0.001,0.098-0.002,0.149-0.006
			c0.055-0.004,0.11-0.006,0.166-0.008c0.022-0.001,0.044-0.004,0.067-0.005c1.081-0.062,2.152-0.143,3.195-0.234
			c0.029-0.003,0.063-0.004,0.094-0.006c0.041-0.006,0.078-0.01,0.119-0.012c0.559-0.053,1.108-0.106,1.644-0.164
			c0.024-0.003,0.052-0.007,0.077-0.01c0.062-0.005,0.119-0.014,0.182-0.021c0.455-0.052,0.899-0.104,1.33-0.161
			c0.071-0.007,0.15-0.018,0.22-0.027c0.039-0.003,0.07-0.008,0.106-0.015c0.457-0.062,0.896-0.124,1.316-0.193
			c0.031-0.004,0.066-0.009,0.099-0.014c0.073-0.011,0.138-0.024,0.212-0.037c0.271-0.046,0.536-0.093,0.791-0.138
			c0.054-0.011,0.114-0.021,0.167-0.029c0.055-0.012,0.104-0.023,0.16-0.033c0.167-0.034,0.329-0.066,0.485-0.101
			c0.062-0.014,0.129-0.025,0.188-0.038c0.058-0.015,0.112-0.028,0.172-0.04c0.103-0.025,0.208-0.049,0.307-0.072
			c0.045-0.013,0.094-0.023,0.137-0.033c0.147-0.037,0.288-0.074,0.422-0.114l38.748-11.063c0.018-0.004,0.036-0.01,0.056-0.017
			c0.141-0.041,0.277-0.083,0.41-0.127c0.041-0.013,0.077-0.028,0.119-0.042c0.045-0.016,0.092-0.033,0.137-0.05
			c0.043-0.013,0.09-0.028,0.132-0.045c0.127-0.049,0.249-0.1,0.366-0.148c0.118-0.053,0.235-0.107,0.342-0.164
			c0.031-0.015,0.059-0.033,0.09-0.051c0.038-0.021,0.079-0.042,0.118-0.063c0.035-0.021,0.076-0.041,0.11-0.063
			c0.057-0.035,0.104-0.071,0.158-0.106c0.029-0.02,0.061-0.041,0.088-0.061c0.013-0.011,0.029-0.017,0.039-0.028
			c0.092-0.07,0.171-0.137,0.241-0.206c0.002-0.003,0.007-0.004,0.007-0.004l0.001-0.002c0.08-0.077,0.147-0.155,0.203-0.235
			c0.003-0.003,0.006-0.013,0.01-0.018c0.022-0.031,0.034-0.062,0.05-0.094c0.026-0.046,0.06-0.096,0.077-0.144
			c0.005-0.005,0.004-0.015,0.006-0.021c0.018-0.046,0.022-0.094,0.028-0.139c0.011-0.039,0.023-0.075,0.025-0.112
			c0-0.013,0-0.026,0-0.04c0.012-14.125,0.023-87.466,0.032-101.59C345.057,127.939,345.039,127.991,345.03,128.041z"/>
	</g>
</g>
<g>
	<path fill="#2F2E41" d="M479.52,39.323c-10.937-18.479-32.574-19.34-32.574-19.34s-21.081-2.695-34.607,25.448
		c-12.603,26.231-30.003,51.558-2.803,57.699l4.916-15.293l3.043,16.432c3.872,0.279,7.758,0.345,11.641,0.198
		c29.133-0.939,56.877,0.278,55.983-10.178C483.931,80.393,490.041,57.105,479.52,39.323z"/>
	<path fill="#3F3E55" d="M407.985,201.149c-0.32,2.031-0.789,4.041-1.394,6.006c-0.685,1.923-1.743,3.703-2.367,5.648
		c-1.997,6.194,0.769,13.106,5.187,17.888c3.828,4.131,8.772,7.069,14.229,8.454c4.025,0.859,8.124,1.291,12.235,1.283
		c11.363,0.387,23.026,0.731,33.799-2.922c3.402-1.184,6.692-2.675,9.824-4.461c0.985-0.47,1.855-1.155,2.548-2.005
		c0.723-1.246,1.04-2.683,0.917-4.117c-0.023-4.821-1-9.616-0.769-14.429c0.129-2.665,0.629-5.33,0.383-7.988
		c-0.696-6.187-5.204-11.266-11.263-12.697c-3.057-0.656-6.228-0.297-9.334,0c-8.082,0.778-16.19,1.142-24.302,1.087
		c-8.29-0.053-16.529-1.318-24.776-1.449c-2.438-0.039-2.391,0.712-3.168,3.073C409.021,196.694,408.436,198.907,407.985,201.149z"
		/>
	<path fill="#A0616A" d="M431.508,82.144c-0.396,2.085-0.829,4.248-2.084,5.963c-1.44,1.972-3.789,3.099-5.345,4.988
		c-2.336,2.838-2.467,6.836-2.473,10.515c-0.012,3.388,0.056,7.001,1.945,9.811c1.345,1.749,3.014,3.221,4.916,4.334
		c7.083,4.776,14.739,9.635,23.282,9.793c3.536,0.065,7.334-0.848,9.661-3.513c1.007-1.253,1.797-2.665,2.343-4.175
		c2.18-5.384,3.506-11.08,3.92-16.874c0.317-2.724,0.062-5.484-0.745-8.107c-1.037-2.893-3.137-5.273-4.525-8.017
		c-1.637-3.26-2.236-6.948-1.716-10.559c0.067-0.257,0.047-0.527-0.058-0.765c-0.232-0.262-0.574-0.402-0.921-0.374l-16.938-1.22
		c-1.576-0.08-3.147-0.259-4.701-0.54c-0.915-0.186-3.323-1.48-4.197-1.136C432.26,72.908,431.838,80.418,431.508,82.144z"/>
	<path fill="#FBBEBE" d="M431.508,82.674c-0.396,2.085-0.829,4.249-2.084,5.962c-1.44,1.973-3.789,3.097-5.345,4.986
		c-2.336,2.84-2.467,6.839-2.473,10.514c-0.012,3.39,0.056,7.002,1.945,9.815c1.345,1.748,3.014,3.219,4.916,4.334
		c7.083,4.772,14.739,9.634,23.282,9.792c3.536,0.064,7.334-0.849,9.661-3.516c1.007-1.253,1.797-2.662,2.343-4.173
		c2.18-5.384,3.506-11.079,3.92-16.874c0.317-2.725,0.062-5.484-0.745-8.104c-1.037-2.895-3.137-5.274-4.525-8.017
		c-1.637-3.263-2.236-6.948-1.716-10.561c0.067-0.255,0.047-0.528-0.058-0.768c-0.232-0.26-0.574-0.398-0.921-0.372l-16.938-1.22
		c-1.576-0.077-3.147-0.256-4.701-0.537c-0.915-0.186-3.323-1.481-4.197-1.136C432.26,73.436,431.838,80.944,431.508,82.674z"/>
	<circle fill="#FBBEBE" cx="447.707" cy="59.568" r="24.849"/>
	<path fill="#4BC2EF" d="M434.993,115.222c1.228,1.421,2.709,2.603,4.362,3.488c1.73,0.715,3.586,1.069,5.457,1.039
		c4.479,0.125,9.337-0.695,12.447-3.917c4.019-4.15,3.887-10.846,7.036-15.688c0.252-0.441,0.598-0.819,1.012-1.111
		c0.53-0.287,1.129-0.424,1.727-0.396c3.976-0.039,7.438,2.542,10.567,5c1.469,1.012,2.732,2.297,3.719,3.789
		c0.616,1.204,1.04,2.501,1.252,3.839c1.555,7.573,2.057,15.317,2.553,23.03c0.277,4.26,0.555,8.526,0.532,12.794
		c-0.071,14.066-3.337,27.9-6.588,41.583c-0.419,1.764-0.992,3.737-2.597,4.582c-0.714,0.32-1.482,0.507-2.265,0.549
		c-9.312,1.096-18.644,2.192-28.02,2.337c-3.656,0.055-7.315-0.033-10.97-0.268c-0.63-0.006-1.253-0.115-1.852-0.321
		c-0.805-0.389-1.502-0.978-2.012-1.712c-5.073-6.389-5.372-15.225-5.339-23.383c0.08-19.945,0.79-39.875,2.137-59.788
		c0.111-1.643,0.139-3.643-1.05-4.933C429.411,109.153,432.053,112.333,434.993,115.222z"/>
	<path fill="#4BC2EF" d="M429.729,86.531c-0.838,1.52-7.025,5.293-8.219,6.552c-6.673,7.034-18.857,6.769-24.962,14.303
		c-2.147,2.653-3.261,5.983-4.083,9.297c-1.161,4.682-1.779,9.791,0.166,14.207c1.869,4.248,5.81,7.186,8.482,10.983
		c2.935,4.167,4.255,9.229,5.521,14.167c0.932,3.646,1.874,7.384,1.509,11.132c-0.413,4.259-2.474,8.16-3.691,12.263
		c-1.216,4.104-1.425,8.988,1.388,12.213c2.066,2.368,5.312,3.308,8.409,3.837c3.97,0.596,7.974,0.945,11.986,1.043
		c3.544,0.155,7.45,0.186,10.174-2.084c2.148-1.792,3.083-4.702,3.202-7.495c0.122-2.796-0.455-5.568-0.825-8.343
		c-0.376-2.876-0.521-5.778-0.643-8.675c-0.546-13.005-0.62-26.02-0.223-39.041c0.199-2.708,0.065-5.429-0.397-8.104
		c-0.761-3.485-2.641-6.596-4.212-9.798c-3.138-6.026-4.562-12.802-4.109-19.584C429.676,86.434,432.715,81.126,429.729,86.531z"/>
	<path fill="#4BC2EF" d="M464.627,87.061c1.276,1.311,5.618,1.746,7.246,2.593c1.53,0.705,3.123,1.259,4.766,1.65
		c5.93,1.709,11.574,4.3,16.738,7.683c1.074,0.625,2.019,1.448,2.797,2.416c0.82,1.333,1.348,2.824,1.552,4.372
		c0.796,3.945,1.593,7.937,1.416,11.958c-0.192,4.265-1.477,8.4-2.75,12.475l-4.765,15.233c-3.556,11.368-7.138,22.848-8.137,34.72
		c-0.552,6.579-0.31,13.201,0.733,19.72c0.199,0.643,0.112,1.338-0.239,1.91c-0.315,0.31-0.727,0.502-1.168,0.535
		c-2.299,0.36-4.526-0.812-6.607-1.848c-6.368-3.169-13.166-5.394-20.174-6.603c2.739-3.955,4.852-8.314,6.265-12.916
		c0.806-2.92,1.437-5.886,1.895-8.882l2.216-12.818c0.902-4.686,1.538-9.418,1.902-14.177c0.165-1.783,0.062-3.585-0.309-5.337
		c-0.512-1.67-1.188-3.284-2.025-4.816c-3.651-7.599-5.367-16.268-3.928-24.577c0.627-3.633,1.852-7.273,1.339-10.928
		c-0.486-3.514,0.021-6.244-0.882-9.721C458.807,75.429,462.22,84.589,464.627,87.061z"/>
	<path fill="#4BC2EF" d="M396.488,119.402c-1.667,3.453-4.45,6.399-5.397,10.115c-0.371,1.736-0.528,3.514-0.473,5.287
		c-0.164,2.676,0.102,5.357,0.784,7.951c0.53,1.639,1.396,3.15,2.011,4.758c0.863,2.246,1.247,4.645,1.131,7.048
		c-0.169,3.328-1.3,6.56-1.386,9.891c-0.142,5.239,2.283,10.167,4.646,14.84c2.257-5.587,8.616-8.285,14.204-6.029
		c0.575,0.231,1.13,0.512,1.658,0.839c0.54-0.666,0.796-1.517,0.713-2.371c0.175-6.078,0.342-12.156,0.505-18.236
		c0.256-9.401,0.502-18.925-1.663-28.079c-0.976-4.132-2.494-8.246-5.278-11.454c-1.467-1.687-6.447-6.132-8.854-4.243
		c-1.078,0.85-0.828,3.164-0.999,4.337C397.827,115.908,397.289,117.711,396.488,119.402z"/>
	<path fill="#4BC2EF" d="M499.628,109.442c0.668,2.493,0.954,5.072,0.851,7.651c0.034,5.252-0.035,10.506-0.209,15.759
		c0.026,2.695-0.318,5.379-1.022,7.98c-0.54,1.691-1.368,3.278-1.922,4.963c-1.666,5.049-0.757,10.529-0.613,15.844
		c0.097,1.721-0.046,3.447-0.438,5.125c-0.879,3.295-3.236,5.958-4.889,8.944c-1.561,2.836-2.507,6.016-4.374,8.662
		c-1.869,2.645-5.104,4.742-8.241,3.927c-2.374-0.613-4.065-2.716-5.23-4.874c-2.548-4.746-3.421-10.215-2.474-15.519
		c1.171-6.45,4.963-12.175,6.328-18.59c1.879-8.807-0.972-17.896-0.89-26.9c-0.039-1.411,0.155-2.819,0.567-4.17
		c0.718-2.056,2.259-3.699,3.678-5.349c1.779-2.061,3.431-4.229,4.945-6.49c1.02-1.519,2.401-5.423,4.207-5.749
		C493.932,99.934,498.63,106.329,499.628,109.442z"/>
	<path fill="#3F3E55" d="M375.569,197.231c-2.228-0.56-4.524-0.804-6.821-0.726c-9.39,0.522-16.583,8.553-16.063,17.945
		c0.039,0.715,0.126,1.424,0.255,2.131c0.555,2.574,1.464,5.062,2.703,7.386c1.812,3.673,3.979,7.337,7.331,9.688
		c2.018,1.293,4.189,2.328,6.466,3.08l17.643,6.647c2.596,0.977,5.189,1.955,7.811,2.862c13.171,4.55,26.898,7.28,40.807,8.109
		c4.229,0.399,8.497,0.182,12.672-0.642c1.003-0.13,1.928-0.629,2.593-1.402c0.332-0.585,0.53-1.238,0.579-1.911l1.083-7.604
		c0.244-1.057,0.215-2.16-0.09-3.202c-0.496-1.277-1.746-2.079-2.933-2.764c-11.599-6.662-25.144-10.335-34.905-19.479
		c-2.299-2.153-4.221-5.562-7.013-7.025c-3.169-1.658-6.896-2.604-10.17-4.131C390.36,202.852,383.324,199.014,375.569,197.231z"/>
	<path opacity="0.1" enable-background="new    " d="M393.184,207.479c6.236,1.952,32.562,15.489,37.075,20.217
		c-0.604,0.219-21.132-11.284-21.744-11.469c-5.646-1.55-11.173-3.499-16.542-5.83c-1.071-0.496-6.944-2.819-6.68-4.169
		C385.594,204.707,392.078,207.132,393.184,207.479z"/>
	<path fill="#FBBEBE" d="M470.98,258.299c0.352,0.024,0.704-0.076,0.986-0.291c0.254-0.323,0.365-0.733,0.312-1.139l-0.033-10.354
		c-2.974-1.419-6.306-1.875-9.576-2.311l-15.253-2.039c0.351,0.048-2.382,6.569-1.964,7.44c0.737,1.534,6.39,2.896,7.982,3.619
		C458.977,255.746,464.737,258.515,470.98,258.299z"/>
	<path fill="#FBBEBE" d="M423.124,246.479c-2.88,0.46-6.093,0.864-7.962,3.107c-2.36,2.843-1.355,7.079-0.229,10.602
		c0.284,1.877,2.038,3.17,3.916,2.884c0.03-0.005,0.062-0.011,0.093-0.015c2.628,0.165,5.424,0.295,7.719-0.992
		c1.039-0.688,2.04-1.433,3-2.229c1.692-1.125,3.55-1.977,5.51-2.521c3.6-1.13,7.303-1.895,11.061-2.277
		c1.479-0.067,2.944-0.325,4.355-0.77c1.434-0.46,2.566-1.56,3.072-2.976c0.53-1.886-0.562-3.804-1.612-5.452
		c-1.21-2.162-2.778-4.102-4.639-5.733c-2.844-2.209-4.246-0.514-7.108,0.898C434.881,243.68,429.09,245.524,423.124,246.479z"/>
	<path fill="#3F3E55" d="M415.598,249.073l-18.285-5.403c-2.193-0.767-4.484-1.208-6.804-1.317
		c-2.351-0.098-4.626,0.823-6.248,2.527c-1.421,1.661-1.826,3.937-2.18,6.094l-0.758,4.615c-0.503,2.326-0.646,4.721-0.421,7.089
		c0.245,2.402,1.587,4.554,3.632,5.837c2.532,1.382,5.633,0.708,8.455,0.13c5.704-1.167,11.505-1.788,17.327-1.856
		c2.192-0.029,4.483,0,6.422-1.025c2.279-1.351,3.742-3.742,3.91-6.386C421.009,255.433,419.695,250.284,415.598,249.073z"/>
	<path fill="#3F3E55" d="M478.166,244.365c2.374-0.417,4.463-1.762,6.735-2.56c3.195-1.117,6.661-1.117,10.046-1.105
		c1.248-0.115,2.497,0.137,3.603,0.722c1.496,0.992,1.876,2.979,2.131,4.756l1.531,10.704c0.408,2,0.454,4.053,0.123,6.066
		c-0.448,1.983-1.803,3.896-3.77,4.408c-2.392,0.622-4.735-0.906-6.992-1.909c-5.644-2.509-12.199-1.866-18.085-3.743
		c-1.14-0.225-2.125-0.931-2.708-1.933c-0.201-0.596-0.274-1.226-0.212-1.852c0.103-3.441-0.623-8.142,0.411-11.431
		C471.91,243.533,475.52,244.365,478.166,244.365z"/>
	<path fill="#3F3E55" d="M516.86,192.922c3.654-0.915,7.442-1.175,11.188-0.762c2.991,0.328,6.073,1.159,8.256,3.232
		c2.655,2.517,3.509,6.414,3.584,10.074c0.112,7.292-2.301,14.398-6.847,20.105c-1.105,1.446-2.424,2.713-3.909,3.768
		c-1.603,1.001-3.309,1.822-5.09,2.452l-39.511,15.583c-10.392,4.1-20.823,8.211-31.662,10.914c-1.229,0.594-2.705,0.079-3.297-1.15
		c-0.009-0.019-0.018-0.034-0.027-0.055c-3.462-4.943-6.365-10.256-8.659-15.84c-0.375-0.454-0.31-1.127,0.151-1.502
		c0.093-0.078,0.204-0.139,0.318-0.179l27.949-16.058c2.047-1.069,3.955-2.385,5.688-3.919c1.205-1.171,2.193-2.547,2.919-4.066
		c0.581-1.208,0.632-4.063,1.375-4.958c0.724-0.877,3.199-0.946,4.346-1.289c1.614-0.496,3.194-1.093,4.732-1.792
		c6.251-2.794,11.821-6.858,17.811-10.133C509.535,195.426,513.125,193.941,516.86,192.922z"/>
	<path opacity="0.1" enable-background="new    " d="M501.02,204.913c-4.801,3.607-11.017,6.921-15.775,10.621
		c-1.624,1.265-28.697,16.484-29.081,18.508c4.442,0.747,32.719-19.035,36.764-21.01c4.048-1.975,7.634-4.76,11.188-7.524
		c0.906-0.703,4.746-2.819,2.146-3.605C504.796,201.458,502.102,204.194,501.02,204.913z"/>
	<path fill="#D0CDE1" d="M467.989,87.411h-42.147c-3.567,0-6.459,2.889-6.459,6.454l0,0v2.364h-0.454v5.289h0.454v3.7h-0.454v3.17
		h0.454v39.013c0,3.565,2.892,6.454,6.459,6.454l0,0h42.147c3.562,0,6.454-2.889,6.454-6.454l0,0V93.865
		C474.443,90.3,471.551,87.411,467.989,87.411z"/>
	<polygon fill="#2F2E41" points="474.683,37.542 453.309,26.347 423.789,30.927 417.684,57.899 432.887,57.316 437.133,47.405 
		437.133,57.152 444.146,56.882 448.215,41.105 450.764,57.899 475.702,57.391 	"/>
	<path fill="#FBBEBE" d="M402.078,189.429c0.969,1.644,2.342,3.011,3.986,3.97c2.197,1,4.728,0.933,6.861-0.185
		c2.105-1.128,3.828-2.856,4.951-4.96c2.324-4.104,2.803-9.014,2.514-13.719c-0.291-4.705-1.295-9.341-1.738-14.032
		c-0.325-3.411-0.351-6.843-0.376-10.27c-0.081-0.721,0.071-1.45,0.432-2.079c0.62-0.616,1.424-1.017,2.292-1.142
		c4.686-1.394,7.801-5.789,10.028-10.142c1.492-2.906,2.787-6.083,2.502-9.335c-0.29-3.251-2.624-6.531-5.874-6.863
		c-2.682-0.274-5.154,1.427-7.084,3.303c-4.878,4.762-8.008,11.022-8.896,17.774c-0.424,3.308-0.302,6.707-1.203,9.918
		c-1.921,6.854-7.931,11.059-10.925,17.229C396.246,175.697,398.069,183.413,402.078,189.429z"/>
	<path fill="#FBBEBE" d="M490.529,163.233c-1.382,3.213-4.003,5.732-7.269,6.984c-2.008,0.805-4.225,0.942-6.317,0.386
		c-2.101-0.583-3.814-2.114-4.631-4.14c-0.317-1.005-0.491-2.053-0.518-3.11c-0.301-4.622-0.182-9.388,1.495-13.705
		c0.649-1.665,1.521-3.246,2.031-4.958c0.504-1.98,0.761-4.012,0.769-6.05l0.55-12.618c0.092-0.915,0.028-1.839-0.187-2.737
		c-0.553-1.824-2.258-3.009-3.821-4.1c-3.779-2.626-7.519-5.697-9.348-9.92c-0.631-1.272-0.856-2.707-0.65-4.11
		c0.521-2.506,3.047-4.128,5.546-4.674c6.688-1.465,13.303,2.775,14.761,9.465c0.041,0.177,0.073,0.35,0.104,0.528
		c0.245,1.423,0.243,2.877,0.389,4.315c0.308,3.048,1.278,5.989,1.884,8.995c1.488,7.4,0.716,15.054,2.191,22.452
		C488.742,152.425,493.391,156.464,490.529,163.233z"/>
	<circle fill="#4BC2EF" cx="447.48" cy="110.504" r="5.287"/>
</g>
<g>
	<g>
		<g>
			<path fill="#E6EDF4" d="M94.856,347.913c-3.021,0.353-5.622,0.825-7.072,1.335l-33.23,11.697
				c-2.892,1.016-2.505,2.636,0.879,3.604l38.745,11.063c3.382,0.967,11.268,1.707,17.53,1.653l71.997-0.627
				c3.133-0.027,6.576-0.264,9.597-0.617c3.022-0.353,5.621-0.826,7.067-1.334l33.223-11.697c2.907-1.019,2.519-2.638-0.863-3.604
				l-38.748-11.064c-3.384-0.966-11.268-1.709-17.542-1.652l-71.991,0.627C101.317,347.323,97.877,347.557,94.856,347.913z"/>
		</g>
		<path fill="#F5F9FC" d="M52.641,362.721c0.011,0.047,0.014,0.092,0.03,0.139c0.018,0.052,0.051,0.104,0.078,0.154
			c0.02,0.036,0.035,0.07,0.059,0.106c0.111,0.164,0.276,0.327,0.492,0.486c0.033,0.021,0.067,0.043,0.1,0.066
			c0.081,0.056,0.172,0.115,0.269,0.168c0.038,0.023,0.074,0.044,0.115,0.064c0.266,0.144,0.579,0.279,0.933,0.409
			c0.042,0.015,0.083,0.028,0.126,0.043c0.186,0.066,0.381,0.129,0.592,0.19l38.745,11.063c0.188,0.053,0.396,0.104,0.606,0.158
			c0.062,0.014,0.126,0.03,0.19,0.043c0.156,0.037,0.322,0.073,0.49,0.109c0.129,0.026,0.264,0.056,0.399,0.081
			c0.119,0.025,0.238,0.044,0.359,0.067c0.246,0.046,0.505,0.093,0.771,0.138c0.108,0.016,0.215,0.034,0.328,0.052
			c0.434,0.071,0.892,0.138,1.365,0.2c0.053,0.007,0.106,0.013,0.158,0.02c0.503,0.069,1.028,0.132,1.567,0.191
			c0.028,0.004,0.058,0.006,0.085,0.009c0.542,0.06,1.099,0.114,1.663,0.167c0.093,0.008,0.185,0.018,0.276,0.023
			c1.042,0.094,2.115,0.173,3.197,0.234c0.087,0.004,0.175,0.008,0.263,0.015c0.675,0.036,1.352,0.064,2.025,0.091
			c0.369,0.013,0.737,0.024,1.107,0.03c0.165,0.006,0.329,0.008,0.495,0.011c0.322,0.007,0.645,0.013,0.962,0.015
			c0.032,0,0.06,0,0.088,0c0.384,0.004,0.764,0.004,1.134-0.001l71.997-0.627c0.779-0.008,1.572-0.026,2.376-0.059
			c0.021,0,0.042-0.001,0.061-0.003c0.784-0.03,1.575-0.072,2.363-0.122c0.022-0.002,0.043-0.005,0.063-0.006
			c1.622-0.105,3.228-0.252,4.733-0.428c0.292-0.033,0.575-0.069,0.862-0.107c0.092-0.013,0.186-0.022,0.276-0.035
			c0.194-0.024,0.377-0.053,0.564-0.077c0.208-0.028,0.417-0.058,0.619-0.089c0.169-0.024,0.329-0.051,0.494-0.077
			c0.256-0.042,0.506-0.083,0.75-0.126c0.124-0.021,0.249-0.041,0.37-0.064c0.411-0.076,0.801-0.149,1.166-0.231
			c0.069-0.014,0.131-0.029,0.199-0.045c0.269-0.059,0.523-0.122,0.763-0.184c0.079-0.021,0.158-0.042,0.235-0.063
			c0.281-0.076,0.544-0.155,0.77-0.234l33.223-11.697c1.309-0.458,1.95-1.04,1.95-1.625c0.007,14.124,0.018,30.905,0.028,45.03
			c0,0.589-0.641,1.169-1.949,1.628L200.4,419.719c-0.229,0.079-0.492,0.159-0.77,0.234c-0.079,0.021-0.159,0.043-0.24,0.062
			c-0.241,0.064-0.498,0.125-0.771,0.188c-0.044,0.011-0.08,0.021-0.124,0.031c-0.017,0.002-0.039,0.005-0.056,0.011
			c-0.375,0.083-0.776,0.161-1.2,0.237c-0.03,0.006-0.053,0.012-0.083,0.015c-0.058,0.011-0.125,0.022-0.186,0.032
			c-0.293,0.052-0.596,0.102-0.908,0.152c-0.066,0.01-0.128,0.021-0.195,0.032c-0.046,0.007-0.097,0.013-0.145,0.02
			c-0.314,0.049-0.633,0.095-0.959,0.138c-0.057,0.01-0.108,0.018-0.165,0.023c-0.014,0.002-0.031,0.004-0.044,0.007
			c-0.381,0.051-0.767,0.099-1.165,0.146c-0.014,0.001-0.027,0.003-0.04,0.004l-0.021,0.002c-0.392,0.047-0.788,0.09-1.192,0.132
			c-0.389,0.04-0.78,0.077-1.173,0.113c-0.371,0.032-0.745,0.064-1.119,0.095c-0.35,0.026-0.704,0.053-1.058,0.077
			c-0.049,0.002-0.102,0.006-0.153,0.009c-0.05,0.003-0.104,0.005-0.156,0.011c-0.228,0.015-0.454,0.029-0.683,0.041
			c-0.305,0.019-0.611,0.034-0.915,0.049c-0.226,0.009-0.451,0.019-0.678,0.029c-0.039,0.001-0.077,0.001-0.113,0.003
			c-0.017,0-0.031,0-0.044,0.003c-0.253,0.01-0.505,0.017-0.753,0.024c-0.225,0.009-0.449,0.012-0.669,0.019
			c-0.199,0.003-0.396,0.006-0.594,0.01c-0.098,0-0.197,0.004-0.293,0.004l-71.997,0.625c-0.075,0.001-0.15,0.001-0.229,0.002
			c-0.181,0-0.363,0-0.545,0c-0.077,0-0.152-0.001-0.229-0.001c-0.132-0.001-0.263-0.001-0.398-0.003
			c-0.192-0.001-0.388-0.003-0.585-0.007c-0.07-0.002-0.14-0.002-0.21-0.003c-0.128-0.001-0.254-0.004-0.384-0.01
			c-0.049,0-0.098-0.001-0.148-0.002c-0.231-0.005-0.468-0.013-0.699-0.02c-0.087-0.003-0.174-0.004-0.263-0.009h-0.002h-0.009
			c-0.67-0.022-1.346-0.053-2.023-0.091c-0.049-0.001-0.098-0.003-0.149-0.005c-0.055-0.006-0.111-0.007-0.167-0.01
			c-0.023-0.001-0.043-0.002-0.067-0.003c-1.082-0.063-2.153-0.144-3.196-0.235c-0.03-0.003-0.063-0.004-0.094-0.007
			c-0.041-0.005-0.078-0.009-0.119-0.012c-0.558-0.052-1.108-0.106-1.644-0.162c-0.024-0.005-0.05-0.008-0.079-0.011
			c-0.06-0.006-0.117-0.013-0.179-0.022c-0.456-0.05-0.899-0.103-1.33-0.16c-0.072-0.008-0.151-0.019-0.221-0.026
			c-0.039-0.005-0.07-0.01-0.106-0.017c-0.458-0.062-0.896-0.124-1.317-0.191c-0.031-0.006-0.066-0.01-0.098-0.014
			c-0.072-0.011-0.137-0.026-0.212-0.039c-0.272-0.044-0.536-0.091-0.791-0.138c-0.054-0.011-0.115-0.019-0.167-0.028
			c-0.055-0.012-0.105-0.023-0.161-0.033c-0.167-0.034-0.328-0.066-0.483-0.1c-0.063-0.015-0.13-0.026-0.188-0.039
			c-0.059-0.014-0.113-0.028-0.172-0.04c-0.104-0.026-0.208-0.05-0.308-0.073c-0.044-0.013-0.093-0.021-0.137-0.031
			c-0.147-0.037-0.287-0.075-0.421-0.115L55.46,409.581c-0.018-0.006-0.037-0.011-0.056-0.018c-0.141-0.041-0.277-0.082-0.41-0.128
			c-0.042-0.013-0.079-0.026-0.119-0.042c-0.046-0.015-0.093-0.031-0.138-0.05c-0.044-0.012-0.089-0.027-0.13-0.043
			c-0.128-0.05-0.25-0.1-0.369-0.148c-0.117-0.054-0.233-0.107-0.339-0.165c-0.033-0.014-0.06-0.032-0.091-0.05
			c-0.04-0.021-0.08-0.041-0.118-0.063c-0.035-0.022-0.076-0.042-0.111-0.063c-0.057-0.035-0.105-0.071-0.158-0.106
			c-0.029-0.021-0.061-0.039-0.088-0.061c-0.013-0.011-0.031-0.017-0.039-0.026c-0.092-0.07-0.172-0.137-0.241-0.207
			c-0.003-0.002-0.009-0.005-0.009-0.005l-0.001-0.001c-0.079-0.077-0.146-0.154-0.202-0.234c-0.003-0.004-0.006-0.014-0.01-0.019
			c-0.022-0.031-0.034-0.062-0.049-0.094c-0.029-0.047-0.061-0.096-0.079-0.145c-0.004-0.004-0.002-0.015-0.005-0.021
			c-0.018-0.046-0.022-0.094-0.029-0.139c-0.01-0.039-0.023-0.076-0.027-0.112c0-0.013,0-0.026,0-0.041
			c-0.011-14.125-0.021-30.907-0.03-45.031C52.615,362.62,52.632,362.671,52.641,362.721z"/>
	</g>
</g>
<g>
	<path fill="#2F2E41" d="M93.289,157.191c8.656,2.699,13.482,11.903,10.781,20.558c-2.698,8.654-11.9,13.48-20.555,10.781
		c-8.654-2.7-13.482-11.901-10.781-20.555C75.433,159.32,84.637,154.492,93.289,157.191z"/>
	<polygon fill="#FBBEBE" points="130.693,237.094 125.191,226.96 107.808,226.941 103.605,245.766 136.666,254.418 130.898,237.692 
			"/>
	<circle fill="#FBBEBE" cx="121.381" cy="206.22" r="26.536"/>
	<path fill="#3F3E55" d="M260.558,313.276c0,0,14.438,63.19,19.341,73.53c2.288,5.049,4.875,9.962,7.743,14.705
		c0,0-7.081,10.464-12.499,8.32c-3.1-1.174-5.965-2.904-8.447-5.107c0,0-0.473-7.186-3.914-11.347
		c-3.437-4.161-27.889-49.866-23.606-60.698C243.461,321.844,260.558,313.276,260.558,313.276z"/>
	<path fill="#3F3E55" d="M125.917,355.03c0,0,25.15,36.105,77.793,25.97l4.778-1.646c0,0-11.16,12.707-13.014,16.518
		c-2.153,4.416-27.703,26.264-30.895,26.695c-3.191,0.433-4.182,1.44-4.182,1.44l7.766,16.703l5.373-1.853
		c0,0,24.586-18.837,30.949-21.698c6.365-2.862,44.333-41.021,44.333-41.021s14.438-14.336-7.83-22.696
		c-22.264-8.363-34.622-5.438-34.622-5.438l-42.224-6.156L125.917,355.03z"/>
	<path fill="#3F3E55" d="M288.819,399.102l13.161,16.849c0,0,19.319,13.387,4.738,13.736c-14.582,0.351-49.842-8.875-48.712-15.282
		c1.131-6.406,6.318-15.425,7.884-14.355C267.462,401.121,278.519,408,288.819,399.102z"/>
	<path fill="#3F3E55" d="M176.266,435.331l-2.212,18.029c0,0,3.563,19.648-5.406,11.098c-8.971-8.55-24.612-35.275-20.085-38.44
		c4.533-3.169,13.065-5.478,13.366-3.891C162.225,423.714,164.739,434.489,176.266,435.331z"/>
	<path fill="#E0396E" d="M168.017,349.201c0,0-30.771,19.299-42.469,8.632c-11.699-10.67-44.62-102.243-33.946-113.94
		c10.667-11.699,11.904-8.114,11.904-8.114l28.095,11.696l-4.163-15.938c0,0,4.779-1.651,7.23,3.518
		c2.448,5.17,14.189,19.833,14.953,35.611c0.762,15.776,16.189,19.812,16.189,19.812L168.017,349.201z"/>
	<polygon fill="#3F3D56" points="276.043,323.305 223.997,352.616 208.261,279.849 254.105,250.005 	"/>
	<polygon fill="#FFFFFF" points="273.232,321.936 226.54,347.395 212.071,281.21 252.943,253.413 	"/>
	<polygon fill="#B3B3B3" points="222.579,350.436 223.997,352.616 222.021,354.634 162.27,353.853 162.337,351.823 165.627,350.024 
			"/>
	<polygon fill="#D0CDE1" points="224.594,352.41 162.456,352.455 148.281,276.474 208.261,279.849 	"/>
	<polygon fill="#3F3D56" points="223.09,342.236 220.102,343.266 207.747,288.047 210.939,287.616 	"/>
	<polygon fill="#3F3D56" points="216.707,343.102 190.526,342.773 178.354,286.154 203.748,288.09 	"/>
	<path fill="#FBBEBE" d="M160.373,286.34l5.396,0.144c0,0,28.63,5.498,26.325,14.313c-2.309,8.817-33.223-5.249-33.223-5.249
		l-2.476-7.171L160.373,286.34z"/>
	<path fill="#FBBEBE" d="M172.447,332.97l7.784-0.681c0,0,23.748-2.844,19.671-10.793c-4.081-7.95-25.812-3.13-25.812-3.13
		l-4.57,2.245L172.447,332.97z"/>
	<path fill="#E0396E" d="M170.485,317.605c0,0,7.745,14.707,4.369,16.539c-3.379,1.833-56.105,23.359-63.048,9.043
		c-6.939-14.312-40.247-85.701-19.053-84.322c21.196,1.381,22.925,14.15,22.925,14.15l12.131,52.625L170.485,317.605z"/>
	<polygon fill="#E0396E" points="147.449,273.087 163.957,285.103 159.497,298.337 140.63,290.142 	"/>
	<polygon opacity="0.2" enable-background="new    " points="151.319,319.2 127.801,324.64 115.976,282.601 128.933,318.234 	"/>
	<circle fill="#2F2E41" cx="112.553" cy="195.409" r="31.591"/>
	<polygon fill="#E6E6E6" points="252.822,318.953 241.339,281.474 253.749,273.185 265.776,311.81 	"/>
	<polygon fill="#E6E6E6" points="248.353,331.185 230.783,274.422 232.962,273 250.353,329.827 	"/>
	<polygon fill="#E6E6E6" points="242.792,334.441 225.222,277.675 227.403,276.255 244.789,333.083 	"/>
	<polygon fill="#E6E6E6" points="238.22,336.685 220.648,279.921 222.831,278.502 240.218,335.329 	"/>
	<path fill="#2F2E41" d="M132.184,179.44l9.329,2.91c9.841,3.068,15.323,13.528,12.254,23.364l0,0l0,0l0,0l-27.14-8.465l0,0
		L132.184,179.44L132.184,179.44z"/>
</g>
<g>
	<path fill="#2F2E41" d="M301.471,101.42c3.635-6.183,5.551-13.228,5.548-20.396h-98.502c0,7.168,1.911,14.213,5.552,20.396h-20.04
		c0,10.752,9.08,19.467,20.282,19.467h24.818c4.17,1.237,8.494,1.864,12.843,1.855h11.589c4.35,0.008,8.677-0.619,12.842-1.855
		h24.822c11.202,0,20.28-8.715,20.28-19.467H301.471z"/>
	<path fill="#2F2E41" d="M228.704,241.878c0.377,4.047-1.781,7.906-5.422,9.708l-0.052,0.028c-9.269,5.288-16.857,9.44-25.863,8.677
		c-3.256-0.288-5.659-3.165-5.374-6.416c0.048-0.532,0.164-1.052,0.353-1.546l12.807-24.358c7.439-8.669,12.679-8.676,21.785-1.391
		L228.704,241.878z"/>
	<path fill="#2F2E41" d="M281.733,241.878c-0.378,4.047,1.78,7.906,5.42,9.708l0.054,0.028c9.271,5.288,16.856,9.44,25.862,8.677
		c3.254-0.288,5.659-3.165,5.373-6.416c-0.049-0.532-0.163-1.052-0.348-1.546l-12.812-24.358c-7.439-8.669-12.68-8.676-21.784-1.391
		L281.733,241.878z"/>
	<path fill="#2F2E41" d="M244.507-45.065h-35.642c-3.316,0.004-6.239-2.166-7.203-5.338c-1.095-3.659-2.512-7.207-2.538-10.427
		c-0.083-12.487,0.535-20.438,6.029-25.496c18.302-13.874,31.562-11.32,44.038,3.251c4.378,8.139,3.256,20.284,0.886,33.339
		C249.595-47.039,247.248-45.07,244.507-45.065z"/>
	<path fill="#9E626B" d="M226.014-77.512c13.314,0,24.103,10.79,24.103,24.102c0,13.315-10.789,24.106-24.103,24.106
		c-13.312,0-24.103-10.791-24.103-24.106C201.911-66.722,212.701-77.512,226.014-77.512z"/>
	<polygon fill="#9E626B" points="244.555,-5.201 211.179,-4.27 208.398,-40.431 240.845,-41.359 	"/>
	<path fill="#F39419" d="M301.109,81.024L278.08,91.686c-3.86,9.147-9.178,8.889-15.908-0.465
		c-6.421,11.249-20.26,4.505-27.019-0.404c-8.837-4.506-19.29-4.527-28.144-0.059L182.436-18.177
		c7.577-6.514,17.668-10.606,27.353-13.446l19.008,23.644l12.978-23.182c9.022-7.25,21.693-7.266,35.229-5.562l7.907,42.259
		C279.696,38.871,287.533,55.589,301.109,81.024z"/>
	<path fill="#2F2E41" d="M225.086,224.728l-19.467,1.853L176.778,99.108c-2.421-10.887,4.442-21.674,15.329-24.095
		c1.437-0.319,2.91-0.483,4.383-0.483l0,0c11.151,0,20.19,9.044,20.19,20.199c0,0.882-0.057,1.765-0.17,2.641l-3.478,26.299
		L225.086,224.728z"/>
	<path fill="#2F2E41" d="M283.498,226.58l19.466-0.927L331.81,99.108c2.416-10.887-4.447-21.674-15.332-24.095
		c-1.439-0.319-2.91-0.483-4.38-0.483l0,0c-11.154,0-20.197,9.044-20.197,20.199c0,0.882,0.058,1.765,0.174,2.641l3.475,26.299
		L283.498,226.58z"/>
	<path fill="#9E626B" d="M346.778,43.639l-16.465,42.483c-8.998-6.884-16.255-7.821-26.237-4.171
		c-2.765-0.386-4.818-6.454-4.818-9.244l0,0c0-2.983,2.349-5.441,5.33-5.577l15.065-0.683c2.76-7.22,4.433-14.801,4.973-22.512
		C331.856,41.887,339.497,41.786,346.778,43.639z"/>
	<path fill="#F39419" d="M348.391,44.864l4.016-14.975c3.612-11.281-1.122-23.563-11.369-29.504l-64.034-37.108l-0.926,40.796
		l47.286,20.395c1.304,6.941,1.73,14.018,1.262,21.068C332.001,43.341,340.999,42.878,348.391,44.864z"/>
	<path fill="#2F2E41" d="M249.655-66.852l-25.029,4.636c-9.734,0-17.616-7.889-17.616-17.618l0,0h43.573L249.655-66.852z"/>
	<ellipse fill="#9E626B" cx="203.764" cy="-62.217" rx="2.318" ry="4.635"/>
	<path fill="#E6E6E6" d="M280.252,11.565h-0.272V4.19c0-2.357-1.91-4.27-4.272-4.27l0,0h-15.621c-2.36,0-4.266,1.913-4.266,4.27l0,0
		v40.464c0,2.357,1.906,4.266,4.266,4.266l0,0h15.621c2.362,0,4.272-1.909,4.272-4.266l0,0V16.818h0.272V11.565z"/>
	<path fill="#4BC2EF" d="M267.269,8.243c2.049,0,3.711,1.664,3.711,3.708c0,2.047-1.662,3.708-3.711,3.708
		c-2.045,0-3.708-1.661-3.708-3.708C263.561,9.907,265.224,8.243,267.269,8.243z"/>
	<path fill="#9E626B" d="M264.022,45.788c-19.066,14.976-38.187,27.435-52.38,29.204l-2.316-25.496
		c13.628-1.961,31.852-10.938,50.99-21.319l9.361-4.872c5.042-2.62,11.26-0.657,13.88,4.387c0.644,1.23,1.026,2.576,1.134,3.963l0,0
		c0.381,4.962-2.843,9.493-7.667,10.748L264.022,45.788z"/>
	<path fill="#F39419" d="M227.866,75.461l-38.011,0.931c-12.79-25.097-17.431-51.871-14.831-80.14
		c0-6.135,3.007-11.883,8.047-15.371l4.004-2.767c17.111,25.4,27.721,48.986,24.106,68.608l11.124-0.935
		C215.102,55.515,218.438,65.429,227.866,75.461z"/>
</g>
</svg>
